<svg xmlns="http://www.w3.org/2000/svg" viewBox="0 0 667.34 690.14"><defs><style>.cls-1{fill:#fff;fill-rule:evenodd;}</style></defs><title>Asset 4</title><g id="Layer_2" data-name="Layer 2"><g id="Layer_1-2" data-name="Layer 1"><path class="cls-1" d="M641.81,453c-2.48-3-7.13-4-10.75-6-1.94-1.08-4.29-1.94-5.56-3.63-5.35-7.12-10.48-14.43-15.47-21.83-3.62-5.38-8.15-8.5-14.65-8.53-1.7,0-4.1-.77-5-2.07-9.48-14-18.72-28.17-28.11-42.44,4.71-4.67,8.63-8.21,12.16-12.12,17.87-19.87,29.46-42.5,27.56-70.7-1-15-7.09-27.37-18.6-36.6-2.37-1.9-3.85-3.23-2.91-7.08,6.44-26.35,1.74-49.67-18-68.72a7.16,7.16,0,0,1-1.54-5.77c7.12-27.68-7.29-52.65-30.63-63.09-3.16-1.41-4.49-2.92-4.32-7,1.46-35.13-18.19-59.61-51.8-64.59-3.54-.52-5.39-1.47-6.19-5.23a66.94,66.94,0,0,0-3.59-11.68C446.69-13.45,401.92,6.8,401.92,6.8h0C391.16,12.42,380,17.13,368,19.79a19.65,19.65,0,0,1-9.56,0c-14.82-4.49-29.72-4.22-44.39-.3-21.39,5.71-42.73,11.77-63.75,18.81-7.81,2.62-14.57,8.54-21.95,12.7-3.24,1.83-6.76,4.06-10.26,4.29-16.93,1.09-33.05,4.92-47.78,13.87-16.31,9.91-27.61,23.71-31.09,43.73-.4,2.31-3.43,4.88-5.81,5.95-16.92,7.55-29.62,19.19-33.24,38.69-1.33,7.14,0,14.78-.22,22.18-.08,2.62-.28,6.22-1.86,7.66-19.24,17.45-24.08,49-10.12,75.37,5.54,10.46,7.58,18.1,2.22,30-9.12,20.27-.94,44.6,17.08,60.79,2,1.76,4,3.45,6.52,5.62-1.51,2.49-2.8,5-4.45,7.28C98.73,381,88.06,395.59,77.18,410c-1.23,1.63-3.9,2-5.87,3.1-4.42,2.4-9.81,3.9-13,7.51-6.13,6.95-10.92,15.17-16.48,22.7-1.18,1.6-3.34,3.66-4.88,3.52-6.19-.57-9.54,3.13-12.86,7.59q-7.51,10.12-15.16,20.12C7.84,476,0,488,0,522.9V660c0,14.43,14.65,30.14,39.28,30.14H209.85a62.32,62.32,0,0,1,3-6.48q17-27.71,34.16-55.31c2.88-4.6,4.57-9,2.47-14.59-.58-1.56.42-4.27,1.47-5.9,5.07-7.89,10.33-15.64,15.66-23.35a18.81,18.81,0,0,0,2.64-17.29,8.49,8.49,0,0,1,.89-6.52c7.75-10.61,15.59-21.17,23.85-31.36,12-14.8,28-22.48,45.84-26.25,2.09-.44,4.71.33,6.71,1.33,13,6.5,23.43,16.27,31.86,28.32,6.51,9.31,12.71,18.87,18.74,28.53a9.33,9.33,0,0,1,.6,6.64A18.21,18.21,0,0,0,400.34,584c5.39,7.94,10.85,15.82,16,23.93,1.1,1.73.93,4.34,1.29,6.55.69,4.23.2,9.19,2.19,12.58,11.22,19.07,23.05,37.76,34.61,56.61a66,66,0,0,1,3.08,6.48H626c7.06-.13,41.32-2.7,41.32-40.24V486.29C658.89,475.14,650.71,463.74,641.81,453ZM111.24,230.32s6.84-12.36,13.59-5.5c.2.2.39.38.57.54,28.91,30.35,62.67,50,102.38,59.71h0S227.72,297,221,297.86h0a4.54,4.54,0,0,0-.64.13,44.88,44.88,0,0,1-6.07.72c-7.94.42-16.25.39-23.89-1.58C167.51,291.24,145.89,282,128,265.4,117.68,255.89,110.73,244.64,111.24,230.32ZM132,307.5h0c14.67,8.16,29.77,15.21,45.81,19.67h0s12.94,13.91,2.57,17.81c-22.26,3.09-41.61-3.75-57.2-20.66a19.74,19.74,0,0,1-5.12-9.77S123.71,303,132,307.5Zm106.4,280.72a22.92,22.92,0,0,1-32.84,5.61L72.51,494.16a25.22,25.22,0,0,1-5.38-34.24A22.92,22.92,0,0,1,100,454.31L233,554A25.22,25.22,0,0,1,238.42,588.22Zm17.86-333a41.84,41.84,0,0,1-5.74.53,8.65,8.65,0,0,0-2.82,0,63.8,63.8,0,0,1-13.11-1.91c-36.66-9-68.19-27.42-92.79-57.59A69,69,0,0,1,132,179.57c-3.51-8.34-3.19-15.52.53-21.17,0,0,9.52-8.46,19.94,4.21l0,0c27.53,37.09,65.33,55.73,107.37,67.68h0C265.67,231.92,266.71,251.4,256.28,255.21Zm20.39-54.54h0a20.35,20.35,0,0,1-5.57-.63c-32.7-8.25-62.91-22-86.92-47.48-5.19-5.5-9.25-12.59-12.37-19.66-5-11.35-2.14-22.51,6.87-30.62A51.92,51.92,0,0,1,186,96.78c23-8.61,31.58,5.34,33.51,9.36a87.52,87.52,0,0,0,7.31,14.14c12,18.13,29,26.75,49.85,24.68.35-.12,16.66-5.82,26.25,4.17S312,205.3,276.66,200.67ZM353.72,73.74l-.26.17Q335.38,85.14,317.3,96.39c-13.51,8.44-27.82,14.26-43.54,16.65-14.91,2.27-28.17-15-28.37-28.17-.11-7.42,4.21-13,13.67-15.93,21.36-6.56,42.8-12.95,64.4-18.56a41.76,41.76,0,0,1,10.21-1.18S377.12,59.21,353.72,73.74Zm34.06,418.92c-.16.26,0-.34.3-.44l.34-.12c10-8.78,138.11-120.9,150.42-102.06l27.62,42.26L424.17,544.18Zm214.8,1.5L469.51,593.83a22.92,22.92,0,0,1-32.84-5.61A25.21,25.21,0,0,1,442.05,554l133.07-99.67A22.91,22.91,0,0,1,608,459.92,25.21,25.21,0,0,1,602.58,494.16Z"/></g></g></svg>