<svg xmlns="http://www.w3.org/2000/svg" viewBox="0 0 859.5 681.31"><defs><style>.cls-1{fill:#fff;}</style></defs><title>Asset 3</title><g id="Layer_2" data-name="Layer 2"><g id="Layer_1-2" data-name="Layer 1"><path class="cls-1" d="M454.81,163.54a108.15,108.15,0,0,0-152.94,0L131.22,334.18a107.68,107.68,0,0,0-25.89,41.56c-31.14-14.38-52.16-43-57-79.94-1.84-13.27-11.53-23.51-24.87-21.39S-2.15,295.07.31,313.87C7.92,372.5,46.07,415.55,101.23,429.52a107.61,107.61,0,0,0,30,57.61l162.5,162.5a108.15,108.15,0,0,0,152.94,0L617.31,479a108.15,108.15,0,0,0,0-152.95Zm28.64,352.22a154.4,154.4,0,1,1,0-218.35A154.39,154.39,0,0,1,483.45,515.76Z"/><path class="cls-1" d="M407.89,314.84c-15.77-.45-29.84,5.39-41.82,17.38-8.09,8.09-13.08,17-14.85,26.58a45.2,45.2,0,0,0-.73,9.62,51.72,51.72,0,0,0-15.74.22c-11.9,2-23.14,8.18-33.41,18.45-14,14-20.89,30.11-20.56,48,.33,17.69,7.25,33.42,20.6,46.76s28.87,20.06,46.55,20.39c17.84.34,33.82-6.43,47.51-20.11,9.93-9.93,16.05-20.9,18.21-32.63a53.8,53.8,0,0,0,.43-16.84,44.15,44.15,0,0,0,10.28-.74c9.38-1.8,18.08-6.65,25.85-14.42,12.09-12.09,18-26.3,17.63-42.24-.38-15.73-6.65-29.78-18.62-41.75S423.42,315.29,407.89,314.84ZM365.22,452.08c-5.94,5.94-12.07,8.83-18.72,8.82a24.22,24.22,0,0,1-24.07-24.46c0-6.92,3-13.21,9-19.23,5.75-5.75,11.85-8.6,18.65-8.69A22.09,22.09,0,0,1,367,415.36a23.26,23.26,0,0,1,7.16,17.47C374.15,439.78,371.23,446.07,365.22,452.08Zm55-64.86c-3.92,3.92-7.93,5.72-12.63,5.67a17.91,17.91,0,0,1-17.42-17.52c0-4.72,2.1-9.14,6.46-13.51a16.55,16.55,0,0,1,12.44-5.35,17.17,17.17,0,0,1,17.14,17.38C426.23,378.87,424.33,383.1,420.21,387.22Z"/><path class="cls-1" d="M855.55,95.83,763.67,3.95c-7.57-7.57-23.5-3.93-35.57,8.14l-7.65,7.65L839.76,139.05l7.65-7.65C859.48,119.33,863.12,103.41,855.55,95.83Z"/><path class="cls-1" d="M687.73,87.16l-76.13,76.13-64.35,64.35,84.61,84.61,6.66-6.66L650,294.14l-46.5-46.5a13.26,13.26,0,0,1,18.75-18.75l46.5,46.5L683,261.07l3.11-3.11L662.23,234A13.26,13.26,0,1,1,681,215.28l23.92,23.93,13.49-13.49h0l3.94-3.94-46.5-46.5a13.26,13.26,0,0,1,18.76-18.75l46.5,46.5,17.43-17.43L734.6,161.66a13.26,13.26,0,0,1,18.76-18.76l23.92,23.93,27.65-27.65L720.32,54.57Z"/></g></g></svg>