<svg xmlns="http://www.w3.org/2000/svg" viewBox="0 0 566.75 687.82"><defs><style>.cls-1{fill:#fff;fill-rule:evenodd;}</style></defs><title>Asset 1</title><g id="Layer_2" data-name="Layer 2"><g id="Layer_1-2" data-name="Layer 1"><path class="cls-1" d="M524,252.63C485.37,190.44,424.14,146,351.6,127.54c-7.15-1.82-14.34-3.17-21.1-4.32q0-.64,0-1.29c1.83,0,3.7-.08,5.6-.16,20.91-.83,37-17.06,37.5-37.78l.08-3.05c.2-7.12.42-15.2-1.18-23.36-5.55-28.29-23.38-47.48-51.55-55.5l-.54-.24c-.52-.23-1-.46-1.55-.67L315.94,0H251.13l-2.6.92-1.71.62c-.77.28-1.53.57-2.31.81-23.83,7.18-40,22.28-46.9,43.68-3.82,11.95-4.17,24.32-4.48,35.24-.32,11.3,3.25,21.19,10.32,28.6s17.61,11.77,29.36,12l2.22,0v.58c-30.1,5.23-57.91,14.63-82.79,28C64.58,197.63,13.49,271.72.42,370.67c-3.14,23.79,11.84,46.25,34.11,51.13A52.19,52.19,0,0,0,45.69,423c23.4,0,41.86-16.16,45.92-40.2q.5-2.93,1-5.86c1.21-7.41,2.35-14.4,4.06-21.1a192.63,192.63,0,0,1,185.59-145,188.07,188.07,0,0,1,39.55,4.22c51.3,11.06,94.83,41.33,122.57,85.25C472,344,480.58,396,468.61,446.82c-15.51,65.77-69.39,139-174.11,147.35-4.82.38-9.68.58-14.44.58-39.72,0-77-13-113.71-39.76l2.37-.67c18.63-5.16,22.83-18.54,23.67-26.06.7-6.2.19-21.56-19.56-30.34l-7-3.11q-52.3-23.25-104.62-46.42a42,42,0,0,0-17-3.76A33.62,33.62,0,0,0,19,455.51c-7,7.65-10.22,18.27-9.14,29.93,1.33,14.42,2.8,29,4.22,43.18l1.3,13q.77,7.72,1.52,15.44c1.61,16.51,3.28,33.58,5.3,50.42a36.68,36.68,0,0,0,10.47,21.27,26.43,26.43,0,0,0,18.3,7.37c9.4,0,18.6-5,24.6-13.33,3.5-4.86,7-9.81,10.42-14.7,38.61,37.44,86.72,62,146.52,74.85,6.56,1.41,13.08,2.41,19.37,3.38,2.79.43,5.57.86,8.35,1.32l1.31.22h45.07l1.45-.27c3.57-.66,7.17-1.24,10.77-1.82a231.25,231.25,0,0,0,25.61-5.13c122.32-34,195.48-110.46,217.46-227.15A281,281,0,0,0,524,252.63Z"/><path class="cls-1" d="M277,395.27c.06,12.35,6.56,18.92,18.66,18.94q71.83.1,143.66,0c11.44,0,17.84-7.79,16-19.21-1-6.14-1.89-12.3-3.18-18.37-8.55-40.41-26.64-75.37-59.22-101.75-27.46-22.24-59.23-34.54-94-39.26-17.89-2.43-22,1.43-22,19.47q0,33.87,0,67.75C277,347,276.89,371.13,277,395.27Z"/></g></g></svg>