<svg xmlns="http://www.w3.org/2000/svg" viewBox="0 0 834.65 782.17"><defs><style>.cls-1{fill:#fff;fill-rule:evenodd;}</style></defs><title>Asset 2</title><g id="Layer_2" data-name="Layer 2"><g id="Layer_1-2" data-name="Layer 1"><path class="cls-1" d="M825.81,325.32c-19.63-20.46-39.13-41.07-59.67-60.58-5.44-5.16-14.28-8.21-22-9.22-11.62-1.52-23.58-.32-35.39-.42s-16.09-4.5-16.19-16c-.08-8.57-.28-17.14,0-25.69.4-10.4-3.29-18.77-10.41-26.29-20.5-21.66-40.59-43.72-61-65.43s-39.32-45.34-62.09-64.27C514.18,20.08,460.95,1.63,402.49.08S292.68,18.71,246.68,53.84c-5.7,4.35-8.77,9.7-6.37,16.87,2.52,7.54,8.4,9.89,16,9.86,16.21-.06,32.5-.79,48.61.57,31.12,2.63,60.14,11.93,85,31.67,41.28,32.77,52.31,88.63,26.45,139.29-7.66,15-18,28.68-27.76,43.45l-.05.06,0,.08c-.66,1-1.32,2-2,3l.53.46c-1,5.38,3.64,10.06,6.67,12.47L375,330.28a29.65,29.65,0,0,0-9.06-3.09c-16.36-2.6-30.82,6.94-36.87,22.52-1.17,3-4,6.67-6.83,7.58C258.53,377.76,212,419.4,177.58,475.46c-19.47,31.69-43.78,58.64-74.64,79.18C79.67,570.13,55,583.5,31.71,599,11.89,612.1-2.05,629.82.25,655.44c.74,8.22,4.33,16.19,6.61,24.27L102.11,775a7.35,7.35,0,0,1,2.49.2c24.92,11.74,48,9.18,66-11.25,13.44-15.31,24.31-33.16,34.67-50.85,23.69-40.44,51.91-76.43,91.39-102.83,19.29-12.9,38.87-25.79,56.24-41.06,32.62-28.66,57-63.58,70.17-105.44,1.93-6.11,4.44-9.56,10.83-12,18-6.9,25.28-25.51,19.08-41.45l25.13-25.13c3.49,3.8,8.52,7.55,13.63,5.48l.22.19.59-.57a13.88,13.88,0,0,0,4.76-4.51C513.35,370.69,530,357.58,550,349.36c14.36-5.89,29.12-9.65,44.85-6.55,9.63,1.9,13.16,5.86,13.28,15.57.12,10.33-1.17,20.86.42,30.95,1.2,7.69,4.15,16.56,9.38,21.9,20.84,21.31,42.78,41.56,64.51,62,11.81,11.11,27.51,11.21,38.88-.28Q774,419.72,826,365.89C837.7,353.78,837.43,337.43,825.81,325.32ZM356.06,434.91a256.26,256.26,0,0,0-77.39,57.94c-16.08,17.53-30.43,36.7-44.88,55.65-22.08,29-49.13,52.34-79.08,72.66-12.91,8.76-26,17.33-38.47,26.62C97,662.08,84.43,680,88.19,707.56c-13-13-25.76-23.7-35.86-36.44s-8.4-27.45,4.79-38.72a479.92,479.92,0,0,1,51.62-38.48A383.14,383.14,0,0,0,216.6,489.62c27-38.66,62.51-68.8,105.15-89.85,11.66-5.76,14.12-5.21,23.2,3.87,4.59,4.59,9.24,9.13,13.72,13.83C365.57,424.69,364.88,430.63,356.06,434.91Zm424.87-65.6a19.94,19.94,0,0,1-28.2,0L702,318.55a19.94,19.94,0,1,1,28.2-28.2l50.76,50.75A19.94,19.94,0,0,1,780.93,369.31Z"/></g></g></svg>